<mxfile host="app.diagrams.net" agent="Mozilla/5.0 (Windows NT 10.0; Win64; x64) AppleWebKit/537.36 (KHTML, like Gecko) Chrome/135.0.0.0 Safari/537.36 OPR/120.0.0.0" version="28.1.1">
  <diagram name="Página-1" id="7clNu2niKi_tRTRILwhC">
    <mxGraphModel dx="1605" dy="431" grid="1" gridSize="10" guides="1" tooltips="1" connect="1" arrows="1" fold="1" page="1" pageScale="1" pageWidth="827" pageHeight="1169" math="0" shadow="0">
      <root>
        <mxCell id="0" />
        <mxCell id="1" parent="0" />
        <mxCell id="QqDEhd43fWeGcJnSrxIc-2" value="" style="whiteSpace=wrap;html=1;aspect=fixed;" vertex="1" parent="1">
          <mxGeometry x="-10" y="120" width="200" height="200" as="geometry" />
        </mxCell>
        <mxCell id="QqDEhd43fWeGcJnSrxIc-3" value="&lt;font style=&quot;font-size: 10px;&quot;&gt;Navegador Local Host&lt;/font&gt;" style="text;html=1;align=center;verticalAlign=middle;whiteSpace=wrap;rounded=0;" vertex="1" parent="1">
          <mxGeometry x="-10" y="120" width="130" height="30" as="geometry" />
        </mxCell>
        <mxCell id="QqDEhd43fWeGcJnSrxIc-4" value="Usuário" style="shape=umlActor;verticalLabelPosition=bottom;verticalAlign=top;html=1;" vertex="1" parent="1">
          <mxGeometry x="67.5" y="202.5" width="45" height="90" as="geometry" />
        </mxCell>
        <mxCell id="QqDEhd43fWeGcJnSrxIc-5" value="" style="endArrow=classic;html=1;rounded=0;exitX=1;exitY=0.5;exitDx=0;exitDy=0;entryX=0;entryY=0.5;entryDx=0;entryDy=0;" edge="1" parent="1" source="QqDEhd43fWeGcJnSrxIc-6" target="QqDEhd43fWeGcJnSrxIc-11">
          <mxGeometry width="50" height="50" relative="1" as="geometry">
            <mxPoint x="390" y="260" as="sourcePoint" />
            <mxPoint x="330" y="220" as="targetPoint" />
          </mxGeometry>
        </mxCell>
        <mxCell id="QqDEhd43fWeGcJnSrxIc-8" value="" style="endArrow=classic;html=1;rounded=0;exitX=1;exitY=0.5;exitDx=0;exitDy=0;" edge="1" parent="1" source="QqDEhd43fWeGcJnSrxIc-2" target="QqDEhd43fWeGcJnSrxIc-6">
          <mxGeometry width="50" height="50" relative="1" as="geometry">
            <mxPoint x="190" y="250" as="sourcePoint" />
            <mxPoint x="330" y="250" as="targetPoint" />
          </mxGeometry>
        </mxCell>
        <mxCell id="QqDEhd43fWeGcJnSrxIc-6" value="&lt;font style=&quot;font-size: 20px;&quot;&gt;app/&lt;/font&gt;" style="text;html=1;align=center;verticalAlign=middle;whiteSpace=wrap;rounded=0;" vertex="1" parent="1">
          <mxGeometry x="230" y="205" width="60" height="30" as="geometry" />
        </mxCell>
        <mxCell id="QqDEhd43fWeGcJnSrxIc-9" value="" style="rounded=0;whiteSpace=wrap;html=1;" vertex="1" parent="1">
          <mxGeometry x="350" width="840" height="320" as="geometry" />
        </mxCell>
        <mxCell id="QqDEhd43fWeGcJnSrxIc-10" value="Máquina Virtual&amp;nbsp;&lt;div&gt;(.Venv)&lt;/div&gt;" style="text;html=1;align=center;verticalAlign=middle;whiteSpace=wrap;rounded=0;" vertex="1" parent="1">
          <mxGeometry x="350" width="110" height="30" as="geometry" />
        </mxCell>
        <mxCell id="QqDEhd43fWeGcJnSrxIc-11" value="Streamlit Ui" style="html=1;whiteSpace=wrap;" vertex="1" parent="1">
          <mxGeometry x="350" y="195" width="110" height="50" as="geometry" />
        </mxCell>
        <mxCell id="QqDEhd43fWeGcJnSrxIc-13" value="" style="endArrow=classic;html=1;rounded=0;exitX=1;exitY=0.5;exitDx=0;exitDy=0;entryX=0;entryY=0.5;entryDx=0;entryDy=0;" edge="1" parent="1" source="QqDEhd43fWeGcJnSrxIc-15" target="QqDEhd43fWeGcJnSrxIc-17">
          <mxGeometry width="50" height="50" relative="1" as="geometry">
            <mxPoint x="490" y="235" as="sourcePoint" />
            <mxPoint x="540" y="185" as="targetPoint" />
          </mxGeometry>
        </mxCell>
        <mxCell id="QqDEhd43fWeGcJnSrxIc-16" value="" style="endArrow=classic;html=1;rounded=0;exitX=1;exitY=0.5;exitDx=0;exitDy=0;" edge="1" parent="1" source="QqDEhd43fWeGcJnSrxIc-11" target="QqDEhd43fWeGcJnSrxIc-15">
          <mxGeometry width="50" height="50" relative="1" as="geometry">
            <mxPoint x="460" y="220" as="sourcePoint" />
            <mxPoint x="580" y="220" as="targetPoint" />
          </mxGeometry>
        </mxCell>
        <mxCell id="QqDEhd43fWeGcJnSrxIc-15" value="&lt;font style=&quot;font-size: 20px;&quot;&gt;data/&lt;/font&gt;" style="text;html=1;align=center;verticalAlign=middle;whiteSpace=wrap;rounded=0;" vertex="1" parent="1">
          <mxGeometry x="490" y="205" width="60" height="30" as="geometry" />
        </mxCell>
        <mxCell id="QqDEhd43fWeGcJnSrxIc-17" value="" style="rounded=0;whiteSpace=wrap;html=1;" vertex="1" parent="1">
          <mxGeometry x="580" y="155" width="120" height="130" as="geometry" />
        </mxCell>
        <mxCell id="QqDEhd43fWeGcJnSrxIc-12" value="" style="shape=cylinder3;whiteSpace=wrap;html=1;boundedLbl=1;backgroundOutline=1;size=15;" vertex="1" parent="1">
          <mxGeometry x="600" y="167.5" width="80" height="105" as="geometry" />
        </mxCell>
        <mxCell id="QqDEhd43fWeGcJnSrxIc-14" value="&lt;font style=&quot;font-size: 10px;&quot;&gt;Summary of Weather.csv&lt;/font&gt;" style="text;html=1;align=center;verticalAlign=middle;whiteSpace=wrap;rounded=0;" vertex="1" parent="1">
          <mxGeometry x="610" y="215" width="60" height="30" as="geometry" />
        </mxCell>
        <mxCell id="QqDEhd43fWeGcJnSrxIc-18" value="" style="endArrow=classic;html=1;rounded=0;exitX=1;exitY=0.5;exitDx=0;exitDy=0;entryX=0;entryY=0.5;entryDx=0;entryDy=0;" edge="1" parent="1" source="QqDEhd43fWeGcJnSrxIc-41" target="QqDEhd43fWeGcJnSrxIc-37">
          <mxGeometry width="50" height="50" relative="1" as="geometry">
            <mxPoint x="380" y="200" as="sourcePoint" />
            <mxPoint x="430" y="150" as="targetPoint" />
          </mxGeometry>
        </mxCell>
        <mxCell id="QqDEhd43fWeGcJnSrxIc-37" value="" style="rounded=0;whiteSpace=wrap;html=1;" vertex="1" parent="1">
          <mxGeometry x="830" y="150" width="340" height="140" as="geometry" />
        </mxCell>
        <mxCell id="QqDEhd43fWeGcJnSrxIc-23" value="" style="rounded=1;whiteSpace=wrap;html=1;" vertex="1" parent="1">
          <mxGeometry x="840" y="175" width="100" height="40" as="geometry" />
        </mxCell>
        <mxCell id="QqDEhd43fWeGcJnSrxIc-28" value="data" style="text;html=1;align=center;verticalAlign=middle;whiteSpace=wrap;rounded=0;" vertex="1" parent="1">
          <mxGeometry x="860" y="180" width="60" height="30" as="geometry" />
        </mxCell>
        <mxCell id="QqDEhd43fWeGcJnSrxIc-22" value="" style="rounded=1;whiteSpace=wrap;html=1;" vertex="1" parent="1">
          <mxGeometry x="950" y="175" width="100" height="40" as="geometry" />
        </mxCell>
        <mxCell id="QqDEhd43fWeGcJnSrxIc-29" value="features" style="text;html=1;align=center;verticalAlign=middle;whiteSpace=wrap;rounded=0;" vertex="1" parent="1">
          <mxGeometry x="970" y="180" width="60" height="30" as="geometry" />
        </mxCell>
        <mxCell id="QqDEhd43fWeGcJnSrxIc-26" value="" style="rounded=1;whiteSpace=wrap;html=1;" vertex="1" parent="1">
          <mxGeometry x="1060" y="175" width="100" height="40" as="geometry" />
        </mxCell>
        <mxCell id="QqDEhd43fWeGcJnSrxIc-33" value="models" style="text;html=1;align=center;verticalAlign=middle;whiteSpace=wrap;rounded=0;" vertex="1" parent="1">
          <mxGeometry x="1080" y="180" width="60" height="30" as="geometry" />
        </mxCell>
        <mxCell id="QqDEhd43fWeGcJnSrxIc-27" value="" style="rounded=1;whiteSpace=wrap;html=1;" vertex="1" parent="1">
          <mxGeometry x="1060" y="227.5" width="100" height="40" as="geometry" />
        </mxCell>
        <mxCell id="QqDEhd43fWeGcJnSrxIc-32" value="config" style="text;html=1;align=center;verticalAlign=middle;whiteSpace=wrap;rounded=0;" vertex="1" parent="1">
          <mxGeometry x="1080" y="232.5" width="60" height="30" as="geometry" />
        </mxCell>
        <mxCell id="QqDEhd43fWeGcJnSrxIc-24" value="" style="rounded=1;whiteSpace=wrap;html=1;" vertex="1" parent="1">
          <mxGeometry x="950" y="227.5" width="100" height="40" as="geometry" />
        </mxCell>
        <mxCell id="QqDEhd43fWeGcJnSrxIc-30" value="chatbot" style="text;html=1;align=center;verticalAlign=middle;whiteSpace=wrap;rounded=0;" vertex="1" parent="1">
          <mxGeometry x="970" y="232.5" width="60" height="30" as="geometry" />
        </mxCell>
        <mxCell id="QqDEhd43fWeGcJnSrxIc-20" value="" style="rounded=1;whiteSpace=wrap;html=1;" vertex="1" parent="1">
          <mxGeometry x="840" y="227.5" width="100" height="40" as="geometry" />
        </mxCell>
        <mxCell id="QqDEhd43fWeGcJnSrxIc-31" value="explain" style="text;html=1;align=center;verticalAlign=middle;whiteSpace=wrap;rounded=0;" vertex="1" parent="1">
          <mxGeometry x="860" y="232.5" width="60" height="30" as="geometry" />
        </mxCell>
        <mxCell id="QqDEhd43fWeGcJnSrxIc-42" value="" style="endArrow=classic;html=1;rounded=0;exitX=1;exitY=0.5;exitDx=0;exitDy=0;entryX=0;entryY=0.5;entryDx=0;entryDy=0;" edge="1" parent="1" source="QqDEhd43fWeGcJnSrxIc-17" target="QqDEhd43fWeGcJnSrxIc-41">
          <mxGeometry width="50" height="50" relative="1" as="geometry">
            <mxPoint x="700" y="220" as="sourcePoint" />
            <mxPoint x="830" y="220" as="targetPoint" />
          </mxGeometry>
        </mxCell>
        <mxCell id="QqDEhd43fWeGcJnSrxIc-41" value="&lt;font style=&quot;font-size: 20px;&quot;&gt;core/&lt;/font&gt;" style="text;html=1;align=center;verticalAlign=middle;whiteSpace=wrap;rounded=0;" vertex="1" parent="1">
          <mxGeometry x="740" y="205" width="60" height="30" as="geometry" />
        </mxCell>
        <mxCell id="QqDEhd43fWeGcJnSrxIc-43" value="" style="endArrow=classic;html=1;rounded=0;exitX=0.5;exitY=0;exitDx=0;exitDy=0;entryX=0.5;entryY=0;entryDx=0;entryDy=0;edgeStyle=orthogonalEdgeStyle;curved=0;" edge="1" parent="1" source="QqDEhd43fWeGcJnSrxIc-37" target="QqDEhd43fWeGcJnSrxIc-11">
          <mxGeometry width="50" height="50" relative="1" as="geometry">
            <mxPoint x="820" y="270" as="sourcePoint" />
            <mxPoint x="870" y="220" as="targetPoint" />
            <Array as="points">
              <mxPoint x="1000" y="110" />
              <mxPoint x="405" y="110" />
            </Array>
          </mxGeometry>
        </mxCell>
        <mxCell id="QqDEhd43fWeGcJnSrxIc-48" value="&lt;font style=&quot;font-size: 24px;&quot;&gt;Output&lt;/font&gt;" style="text;html=1;align=center;verticalAlign=middle;whiteSpace=wrap;rounded=0;" vertex="1" parent="1">
          <mxGeometry x="680" y="80" width="60" height="30" as="geometry" />
        </mxCell>
        <mxCell id="QqDEhd43fWeGcJnSrxIc-52" value="" style="rounded=0;whiteSpace=wrap;html=1;" vertex="1" parent="1">
          <mxGeometry x="350" y="320" width="840" height="110" as="geometry" />
        </mxCell>
        <mxCell id="QqDEhd43fWeGcJnSrxIc-53" value="Python" style="text;html=1;align=center;verticalAlign=middle;whiteSpace=wrap;rounded=0;" vertex="1" parent="1">
          <mxGeometry x="350" y="320" width="60" height="30" as="geometry" />
        </mxCell>
        <mxCell id="QqDEhd43fWeGcJnSrxIc-54" value="" style="rounded=1;whiteSpace=wrap;html=1;" vertex="1" parent="1">
          <mxGeometry x="460" y="345" width="120" height="60" as="geometry" />
        </mxCell>
        <mxCell id="QqDEhd43fWeGcJnSrxIc-55" value="" style="rounded=1;whiteSpace=wrap;html=1;" vertex="1" parent="1">
          <mxGeometry x="590" y="345" width="120" height="60" as="geometry" />
        </mxCell>
        <mxCell id="QqDEhd43fWeGcJnSrxIc-56" value="" style="rounded=1;whiteSpace=wrap;html=1;" vertex="1" parent="1">
          <mxGeometry x="720" y="345" width="120" height="60" as="geometry" />
        </mxCell>
        <mxCell id="QqDEhd43fWeGcJnSrxIc-57" value="" style="rounded=1;whiteSpace=wrap;html=1;" vertex="1" parent="1">
          <mxGeometry x="850" y="345" width="120" height="60" as="geometry" />
        </mxCell>
        <mxCell id="QqDEhd43fWeGcJnSrxIc-58" value="" style="rounded=1;whiteSpace=wrap;html=1;" vertex="1" parent="1">
          <mxGeometry x="980" y="345" width="120" height="60" as="geometry" />
        </mxCell>
        <mxCell id="QqDEhd43fWeGcJnSrxIc-59" value="&lt;font style=&quot;font-size: 14px;&quot;&gt;pandas&lt;/font&gt;" style="text;html=1;align=center;verticalAlign=middle;whiteSpace=wrap;rounded=0;" vertex="1" parent="1">
          <mxGeometry x="490" y="360" width="60" height="30" as="geometry" />
        </mxCell>
        <mxCell id="QqDEhd43fWeGcJnSrxIc-60" value="&lt;font style=&quot;font-size: 14px;&quot;&gt;numpy&lt;/font&gt;" style="text;html=1;align=center;verticalAlign=middle;whiteSpace=wrap;rounded=0;" vertex="1" parent="1">
          <mxGeometry x="620" y="360" width="60" height="30" as="geometry" />
        </mxCell>
        <mxCell id="QqDEhd43fWeGcJnSrxIc-61" value="&lt;font style=&quot;font-size: 14px;&quot;&gt;scikit - learn&lt;/font&gt;" style="text;html=1;align=center;verticalAlign=middle;whiteSpace=wrap;rounded=0;" vertex="1" parent="1">
          <mxGeometry x="740" y="360" width="80" height="30" as="geometry" />
        </mxCell>
        <mxCell id="QqDEhd43fWeGcJnSrxIc-62" value="&lt;font style=&quot;font-size: 14px;&quot;&gt;streamlit&lt;/font&gt;" style="text;html=1;align=center;verticalAlign=middle;whiteSpace=wrap;rounded=0;" vertex="1" parent="1">
          <mxGeometry x="880" y="360" width="60" height="30" as="geometry" />
        </mxCell>
        <mxCell id="QqDEhd43fWeGcJnSrxIc-63" value="&lt;font style=&quot;font-size: 14px;&quot;&gt;matplotlib&lt;/font&gt;" style="text;html=1;align=center;verticalAlign=middle;whiteSpace=wrap;rounded=0;" vertex="1" parent="1">
          <mxGeometry x="1010" y="360" width="60" height="30" as="geometry" />
        </mxCell>
        <mxCell id="QqDEhd43fWeGcJnSrxIc-64" value="" style="endArrow=classic;html=1;rounded=0;exitX=1;exitY=0.5;exitDx=0;exitDy=0;entryX=0.5;entryY=1;entryDx=0;entryDy=0;edgeStyle=orthogonalEdgeStyle;dashed=1;" edge="1" parent="1" source="QqDEhd43fWeGcJnSrxIc-65" target="QqDEhd43fWeGcJnSrxIc-37">
          <mxGeometry width="50" height="50" relative="1" as="geometry">
            <mxPoint x="880" y="270" as="sourcePoint" />
            <mxPoint x="930" y="220" as="targetPoint" />
          </mxGeometry>
        </mxCell>
        <mxCell id="QqDEhd43fWeGcJnSrxIc-67" value="" style="endArrow=classic;html=1;rounded=0;exitX=0.5;exitY=0;exitDx=0;exitDy=0;entryX=0;entryY=0.5;entryDx=0;entryDy=0;edgeStyle=orthogonalEdgeStyle;dashed=1;" edge="1" parent="1" source="QqDEhd43fWeGcJnSrxIc-52" target="QqDEhd43fWeGcJnSrxIc-65">
          <mxGeometry width="50" height="50" relative="1" as="geometry">
            <mxPoint x="770" y="320" as="sourcePoint" />
            <mxPoint x="1000" y="290" as="targetPoint" />
          </mxGeometry>
        </mxCell>
        <mxCell id="QqDEhd43fWeGcJnSrxIc-65" value="&lt;font style=&quot;font-size: 18px;&quot;&gt;import&lt;/font&gt;" style="text;html=1;align=center;verticalAlign=middle;whiteSpace=wrap;rounded=0;" vertex="1" parent="1">
          <mxGeometry x="860" y="292.5" width="60" height="30" as="geometry" />
        </mxCell>
      </root>
    </mxGraphModel>
  </diagram>
</mxfile>
